<svg width="32" height="32" viewBox="0 0 32 32" fill="none" xmlns="http://www.w3.org/2000/svg">
<g id="DiscordLogo">
<path id="Vector" d="M13 17.5C13 17.7967 12.912 18.0867 12.7472 18.3334C12.5824 18.58 12.3481 18.7723 12.074 18.8858C11.7999 18.9993 11.4983 19.0291 11.2074 18.9712C10.9164 18.9133 10.6491 18.7704 10.4393 18.5607C10.2296 18.3509 10.0867 18.0836 10.0288 17.7926C9.97095 17.5017 10.0007 17.2001 10.1142 16.926C10.2277 16.6519 10.42 16.4176 10.6667 16.2528C10.9133 16.088 11.2033 16 11.5 16C11.8978 16 12.2794 16.158 12.5607 16.4393C12.842 16.7206 13 17.1022 13 17.5ZM20.5 16C20.2033 16 19.9133 16.088 19.6667 16.2528C19.42 16.4176 19.2277 16.6519 19.1142 16.926C19.0007 17.2001 18.971 17.5017 19.0288 17.7926C19.0867 18.0836 19.2296 18.3509 19.4394 18.5607C19.6491 18.7704 19.9164 18.9133 20.2074 18.9712C20.4983 19.0291 20.7999 18.9993 21.074 18.8858C21.3481 18.7723 21.5824 18.58 21.7472 18.3334C21.912 18.0867 22 17.7967 22 17.5C22 17.1022 21.842 16.7206 21.5607 16.4393C21.2794 16.158 20.8978 16 20.5 16ZM29.8063 24.1125L21.4313 27.8263C21.1794 27.9382 20.9074 27.9975 20.6318 28.0004C20.3562 28.0034 20.083 27.9499 19.8288 27.8434C19.5746 27.7369 19.3449 27.5795 19.1538 27.3809C18.9627 27.1824 18.8142 26.9468 18.7175 26.6887L17.7038 23.9387C17.1438 23.9762 16.5758 23.9954 16 23.9963C15.4242 23.9971 14.8563 23.9779 14.2963 23.9387L13.2825 26.6887C13.1856 26.9467 13.0371 27.1821 12.8459 27.3806C12.6548 27.579 12.4251 27.7364 12.171 27.8429C11.9169 27.9494 11.6437 28.0029 11.3682 28C11.0926 27.9971 10.8206 27.938 10.5688 27.8263L2.19376 24.1125C1.76149 23.9235 1.41037 23.5872 1.20296 23.1634C0.995558 22.7397 0.94534 22.2561 1.06126 21.7987L4.75001 7.25C4.84736 6.87164 5.05293 6.52987 5.34156 6.26656C5.63018 6.00325 5.98932 5.82981 6.37501 5.7675L10.8825 5.02625C11.3794 4.94633 11.8883 5.05408 12.3102 5.32855C12.732 5.60301 13.0367 6.02458 13.165 6.51125L13.5725 8.11625C14.3667 8.03875 15.1758 8 16 8C16.8242 8 17.6325 8.03875 18.425 8.11625L18.8325 6.51125C18.9605 6.02443 19.2652 5.60269 19.6871 5.32818C20.1091 5.05367 20.6181 4.94604 21.115 5.02625L25.625 5.7675C26.0107 5.82981 26.3698 6.00325 26.6585 6.26656C26.9471 6.52987 27.1527 6.87164 27.25 7.25L30.9413 21.7975C31.0573 22.2553 31.0069 22.7394 30.799 23.1635C30.5911 23.5875 30.2392 23.9239 29.8063 24.1125ZM29 22.285L25.3088 7.75C25.3088 7.75 25.3088 7.75 25.2988 7.75L20.7913 7C20.788 6.99814 20.7844 6.99715 20.7806 6.99715C20.7769 6.99715 20.7732 6.99814 20.77 7L20.4163 8.3925C21.0413 8.51 21.6663 8.65 22.27 8.82C22.508 8.88067 22.7154 9.02684 22.8526 9.23061C22.9897 9.43439 23.0471 9.68152 23.0137 9.92489C22.9804 10.1682 22.8586 10.3908 22.6716 10.5501C22.4846 10.7095 22.2456 10.7944 22 10.7887C21.9087 10.7885 21.8179 10.7759 21.73 10.7513C19.8624 10.2445 17.9351 9.99179 16 10C14.065 9.99138 12.1376 10.2437 10.27 10.75C10.1424 10.7894 10.0082 10.8029 9.87536 10.7897C9.74248 10.7764 9.61361 10.7367 9.49633 10.6728C9.37906 10.6089 9.27577 10.5222 9.19255 10.4178C9.10934 10.3133 9.04788 10.1933 9.01182 10.0647C8.97575 9.93613 8.9658 9.80163 8.98255 9.66915C8.9993 9.53667 9.04242 9.40888 9.10936 9.29333C9.1763 9.17778 9.26571 9.07681 9.37231 8.99638C9.4789 8.91594 9.60053 8.85767 9.73001 8.825C10.3325 8.655 10.9525 8.515 11.5825 8.3975L11.2288 7C11.2288 7 11.2288 7 11.2138 7L6.70126 7.74125C6.69758 7.74024 6.69369 7.74024 6.69001 7.74125L3.00001 22.2913L11.375 26C11.3792 26.0023 11.384 26.0035 11.3888 26.0035C11.3936 26.0035 11.3983 26.0023 11.4025 26L12.25 23.715C11.4009 23.5851 10.5602 23.4048 9.73251 23.175C9.48597 23.0962 9.27958 22.9249 9.15672 22.6971C9.03387 22.4693 9.00411 22.2028 9.07371 21.9535C9.14332 21.7042 9.30686 21.4916 9.52996 21.3604C9.75305 21.2293 10.0183 21.1897 10.27 21.25C12.1375 21.7569 14.0649 22.0092 16 22C17.9351 22.0092 19.8625 21.7569 21.73 21.25C21.9854 21.1784 22.2589 21.2112 22.4901 21.3412C22.7214 21.4712 22.8915 21.6877 22.9631 21.9431C23.0347 22.1986 23.0019 22.472 22.872 22.7032C22.742 22.9345 22.5254 23.1046 22.27 23.1763C21.4415 23.4057 20.6 23.5856 19.75 23.715L20.5938 26C20.5978 26.0022 20.6023 26.0033 20.6069 26.0033C20.6115 26.0033 20.616 26.0022 20.62 26L29 22.285Z" fill="black"/>
</g>
</svg>
